<svg width="188" height="36" viewBox="0 0 188 36" fill="none" xmlns="http://www.w3.org/2000/svg">
<path d="M21.896 1.8L22.256 10.836H21.572C20.516 7.644 19.58 5.472 18.764 4.32C17.948 3.144 16.772 2.556 15.236 2.556H14.804V26.244H17.864V27H4.724V26.244H7.784V2.556H7.316C5.78 2.556 4.592 3.168 3.752 4.392C2.912 5.592 1.988 7.74 0.98 10.836H0.296L0.656 1.8H21.896ZM30.4297 18.54H31.4737V15.768C31.4737 13.488 31.3417 11.964 31.0777 11.196C30.8377 10.404 30.3577 10.008 29.6377 10.008C29.2057 10.008 28.8097 10.128 28.4497 10.368C28.1137 10.584 27.9457 10.896 27.9457 11.304C27.9457 11.688 28.0177 12.084 28.1617 12.492H29.0617C29.2537 12.996 29.3497 13.608 29.3497 14.328C29.3497 15.024 29.0497 15.636 28.4497 16.164C27.8497 16.668 27.0937 16.92 26.1817 16.92C24.1177 16.92 23.0857 15.924 23.0857 13.932C23.0857 10.98 25.5937 9.504 30.6097 9.504C33.4657 9.504 35.4337 9.996 36.5137 10.98C37.6177 11.94 38.1697 13.716 38.1697 16.308V23.616C38.1697 24.864 38.5177 25.488 39.2137 25.488C40.0297 25.488 40.5097 24.252 40.6537 21.78L41.1937 21.816C41.0977 23.928 40.7017 25.38 40.0057 26.172C39.3097 26.964 38.1697 27.36 36.5857 27.36C33.7057 27.36 32.0497 26.472 31.6177 24.696C31.3057 25.608 30.8377 26.28 30.2137 26.712C29.5897 27.144 28.6777 27.36 27.4777 27.36C23.9257 27.36 22.1497 25.908 22.1497 23.004C22.1497 21.3 22.8217 20.136 24.1657 19.512C25.5337 18.864 27.6217 18.54 30.4297 18.54ZM28.9897 22.968C28.9897 24.216 29.0497 25.02 29.1697 25.38C29.3137 25.74 29.5657 25.92 29.9257 25.92C30.3097 25.92 30.6577 25.62 30.9697 25.02C31.3057 24.396 31.4737 23.544 31.4737 22.464V19.116H31.2217C29.7337 19.116 28.9897 20.208 28.9897 22.392V22.968ZM57.9359 9.864V10.512L49.4039 26.352H49.8719C51.8879 26.352 53.4719 25.824 54.6239 24.768C55.7759 23.712 56.6759 21.996 57.3239 19.62H57.8279L57.2519 27H42.1319V26.46L50.8079 10.512H50.4119C47.9879 10.512 46.2959 10.908 45.3359 11.7C44.3999 12.492 43.5599 14.184 42.8159 16.776H42.3479L42.8159 9.864H57.9359ZM61.6991 21.852V10.512H59.7191V9.864H61.6991V5.22L68.3951 3.564V9.864H73.0751V10.512H68.3951V22.644C68.3951 23.772 68.5031 24.6 68.7191 25.128C68.9591 25.656 69.4391 25.92 70.1591 25.92C70.8791 25.92 71.5031 25.56 72.0311 24.84C72.5831 24.12 72.9431 23.136 73.1111 21.888L73.7231 21.96C73.5311 23.616 73.0031 24.936 72.1391 25.92C71.2751 26.88 69.8471 27.36 67.8551 27.36C65.8631 27.36 64.3391 26.964 63.2831 26.172C62.2271 25.38 61.6991 23.94 61.6991 21.852ZM73.5355 10.512V9.864H83.9755V10.512H82.0315L85.9555 22.464L90.1315 10.512H87.7195V9.864H92.7955V10.512H90.9955L84.2635 29.916C83.4715 32.172 82.5835 33.744 81.5995 34.632C80.6155 35.544 79.4155 36 77.9995 36C76.5835 36 75.4675 35.676 74.6515 35.028C73.8355 34.38 73.4275 33.552 73.4275 32.544C73.4275 31.536 73.6915 30.768 74.2195 30.24C74.7475 29.712 75.4435 29.448 76.3075 29.448C78.2995 29.448 79.2955 30.276 79.2955 31.932C79.2955 32.292 79.2235 32.724 79.0795 33.228H77.8195C77.6275 33.78 77.6035 34.236 77.7475 34.596C77.8915 34.956 78.2155 35.136 78.7195 35.136C79.7035 35.136 80.5795 34.644 81.3475 33.66C82.1155 32.7 82.8475 31.224 83.5435 29.232L84.3355 27H81.1675L75.0115 10.512H73.5355Z" fill="#F2B530"/>
<path d="M112.244 1.8H121.856V2.484H119.876V26.316H121.856V27H110.876V26.316H112.856V3.816H112.712L107.312 27H102.812L96.4756 3.708H96.3316V26.316H98.3116V27H93.4156V26.316H95.3956V2.484H93.4156V1.8H103.136L107.924 20.34L112.244 1.8ZM132.578 27.36C129.482 27.36 127.154 26.568 125.594 24.984C124.058 23.376 123.29 21.156 123.29 18.324C123.29 15.468 124.154 13.284 125.882 11.772C127.634 10.26 129.854 9.504 132.542 9.504C137.99 9.504 140.606 12.24 140.39 17.712H130.238V19.116C130.238 21.468 130.538 23.244 131.138 24.444C131.738 25.644 132.782 26.244 134.27 26.244C137.054 26.244 138.878 24.756 139.742 21.78L140.39 21.888C139.934 23.616 139.106 24.96 137.906 25.92C136.73 26.88 134.954 27.36 132.578 27.36ZM130.274 16.992H133.982V15.228C133.982 13.284 133.862 11.964 133.622 11.268C133.406 10.548 132.95 10.188 132.254 10.188C131.582 10.188 131.078 10.572 130.742 11.34C130.43 12.084 130.274 13.38 130.274 15.228V16.992ZM150.312 18.54H151.357V15.768C151.357 13.488 151.225 11.964 150.961 11.196C150.721 10.404 150.241 10.008 149.521 10.008C149.089 10.008 148.693 10.128 148.333 10.368C147.997 10.584 147.829 10.896 147.829 11.304C147.829 11.688 147.901 12.084 148.045 12.492H148.945C149.137 12.996 149.233 13.608 149.233 14.328C149.233 15.024 148.933 15.636 148.333 16.164C147.733 16.668 146.977 16.92 146.064 16.92C144.001 16.92 142.969 15.924 142.969 13.932C142.969 10.98 145.477 9.504 150.493 9.504C153.349 9.504 155.317 9.996 156.397 10.98C157.501 11.94 158.053 13.716 158.053 16.308V23.616C158.053 24.864 158.401 25.488 159.097 25.488C159.913 25.488 160.393 24.252 160.537 21.78L161.077 21.816C160.981 23.928 160.585 25.38 159.889 26.172C159.193 26.964 158.053 27.36 156.469 27.36C153.589 27.36 151.933 26.472 151.501 24.696C151.189 25.608 150.721 26.28 150.097 26.712C149.473 27.144 148.561 27.36 147.361 27.36C143.809 27.36 142.033 25.908 142.033 23.004C142.033 21.3 142.705 20.136 144.049 19.512C145.417 18.864 147.505 18.54 150.312 18.54ZM148.873 22.968C148.873 24.216 148.933 25.02 149.053 25.38C149.197 25.74 149.449 25.92 149.809 25.92C150.193 25.92 150.541 25.62 150.853 25.02C151.189 24.396 151.357 23.544 151.357 22.464V19.116H151.105C149.617 19.116 148.873 20.208 148.873 22.392V22.968ZM161.286 -2.14577e-06H170.106V26.352H172.122V27H161.43V26.352H163.41V0.647998H161.286V-2.14577e-06ZM173.649 27.36V20.916H174.081C174.705 23.004 175.545 24.468 176.601 25.308C177.657 26.148 178.977 26.568 180.561 26.568C183.009 26.568 184.233 25.788 184.233 24.228C184.233 23.556 183.933 23.052 183.333 22.716C182.397 22.188 181.197 21.78 179.733 21.492C178.101 21.06 176.733 20.484 175.629 19.764C174.309 18.9 173.649 17.532 173.649 15.66C173.649 13.788 174.225 12.3 175.377 11.196C176.529 10.068 178.065 9.504 179.985 9.504C181.161 9.504 182.373 9.78 183.621 10.332C184.077 10.524 184.425 10.62 184.665 10.62C184.905 10.62 185.109 10.536 185.277 10.368C185.445 10.2 185.649 9.888 185.889 9.432H186.285V14.94H185.853C184.629 11.82 182.733 10.26 180.165 10.26C179.037 10.26 178.197 10.464 177.645 10.872C177.093 11.256 176.817 11.748 176.817 12.348C176.817 12.708 176.901 12.996 177.069 13.212C177.237 13.404 177.369 13.548 177.465 13.644C177.561 13.74 177.717 13.848 177.933 13.968C178.149 14.064 178.329 14.148 178.473 14.22C178.617 14.268 178.833 14.34 179.121 14.436C179.433 14.532 179.661 14.592 179.805 14.616C181.437 15.024 182.613 15.384 183.333 15.696C184.053 15.984 184.737 16.344 185.385 16.776C186.705 17.688 187.365 19.164 187.365 21.204C187.365 23.22 186.765 24.756 185.565 25.812C184.365 26.844 182.721 27.36 180.633 27.36C179.145 27.36 177.705 27.012 176.313 26.316C176.025 26.124 175.797 26.028 175.629 26.028C175.101 26.028 174.585 26.472 174.081 27.36H173.649Z" fill="#CD3625"/>
</svg>
